# xmcd CD database file
# Copyright (C) 1993-1998 Ti Kan
#
# Track frame offsets:
#  173
#  17442
#  37874
#  55230
#  71470
#  87437
#  110022
#  118805
#  130626
#  150924
#  173730
#  187998
#
# Disc length: 2722 seconds
#
# Revision: 1
# Processed by: cddbd v1.4b41PL1 Copyright (c) Steve Scherf et al.
# Submitted via: KiC 2.1 - (C) 1996-1998 Alwin Hoogerdijk
#
DISCID=8d0aa00c
DTITLE=Salamander Crossing - Bottleneck Dreams
DYEAR=1900
DGENRE=
TTITLE0=What Kind of Person
TTITLE1=River and the Rain
TTITLE2=Indigo Rose
TTITLE3=Put the Weight on Me
TTITLE4=Peter and Paul Walked
TTITLE5=Something Above
TTITLE6=The Last Iron Horse
TTITLE7=Ain't Gonna Work Tomorrow
TTITLE8=Five Days in May
TTITLE9=Long, Long Gone
TTITLE10=Light in the Window
TTITLE11=Crossing the Bar
EXTD=
EXTT0=
EXTT1=
EXTT2=
EXTT3=
EXTT4=
EXTT5=
EXTT6=
EXTT7=
EXTT8=
EXTT9=
EXTT10=
EXTT11=
PLAYORDER=
